PathFileType	4	(X/Y/Z)	Patient4_TMGait_0pt6_01_right_37.trc.trc
DataRate	CameraRate	NumFrames	NumMarkers	Units	OrigDataRate	OrigDataStartFrame	OrigNumFrames
80.000000000000	80.000000000000	4	33	mm	80.000000000000	53	       141
Frame#	Time	Sacral			L.Shoulder			Chest			R.Shoulder			Neck			R.ASIS			L.ASIS			R.Thigh.Superior			R.Thigh.Lateral			R.Thigh.Inferior			R.Patella			L.Thigh.Superior			L.Thigh.Lateral			L.Thigh.Inferior			L.Patella			L.Shank.Superior			L.Shank.Lateral			L.Shank.Inferior			R.Shank.Superior			R.Shank.Lateral			R.Shank.Inferior			R.Heel			R.Midfoot.Superior			R.Midfoot.Lateral			R.Toe			L.Heel			L.Midfoot.Lateral			L.Midfoot.Superior			L.Toe			L.Elbow			L.Wrist			R.Elbow			R.Wrist			
		X1	Y1	Z1	X2	Y2	Z2	X3	Y3	Z3	X4	Y4	Z4	X5	Y5	Z5	X6	Y6	Z6	X7	Y7	Z7	X8	Y8	Z8	X9	Y9	Z9	X10	Y10	Z10	X11	Y11	Z11	X12	Y12	Z12	X13	Y13	Z13	X14	Y14	Z14	X15	Y15	Z15	X16	Y16	Z16	X17	Y17	Z17	X18	Y18	Z18	X19	Y19	Z19	X20	Y20	Z20	X21	Y21	Z21	X22	Y22	Z22	X23	Y23	Z23	X24	Y24	Z24	X25	Y25	Z25	X26	Y26	Z26	X27	Y27	Z27	X28	Y28	Z28	X29	Y29	Z29	X30	Y30	Z30	X31	Y31	Z31	X32	Y32	Z32	X33	Y33	Z33	

53	45.100000000000	726.026405083236	1009.237478067675	504.940735187386	875.457902037735	1435.894293645559	308.466962477464	995.868684610421	1369.929674072985	458.373845036363	931.030659783336	1442.792070394263	639.360072374211	875.440818770615	1498.611212913774	459.912485958069	958.618833042842	946.947815866014	606.855485181580	926.705744203389	965.090072705975	334.055266309161	979.559986683923	738.399498503087	575.929784569473	888.411768565588	634.834158321954	635.007539351923	957.971521308932	578.236121316863	553.795535519467	950.478272578571	493.923610480108	557.057999102609	1019.352497465330	794.471099563152	362.127676270537	982.950228284076	665.857159145681	281.193142100296	1092.731168629277	611.751839081676	338.016426050856	1116.373845568645	528.078099337902	328.354026342471	1068.831525103679	451.824159320592	323.485179153396	945.797981475302	368.007132184542	281.308371267600	979.005126953205	241.008728249328	334.125981873981	924.612923783174	406.392275206864	560.369588222407	853.871032177394	298.310708664123	613.844596022905	902.881172350066	207.889050209970	548.363638893051	775.511891081266	40.993304379568	503.843392116377	945.238349387939	97.231616712198	548.386537486180	855.660924886614	35.936822493217	582.458264210890	1063.770244281132	46.109044798909	579.689162746499	821.987729987085	123.181670914810	382.305570340973	884.485863352285	93.819177682216	298.783636907613	983.499598260171	132.001589640830	312.798941917253	1087.670827844514	46.360967841672	281.212448414450	833.901308518341	1075.009378805260	214.233222823522	902.702823274427	823.498549032305	208.474058883704	983.740489115336	1099.613983215576	760.534448070620	1220.618685551840	1020.779298109089	701.849677316736	
54	45.112500000000	725.100784239260	1009.581746594073	505.897574284148	874.310248548308	1435.957934987725	309.339239532353	995.487661157295	1369.539021301011	458.459658988230	931.921066153461	1442.476270071564	639.828491666490	875.309873034864	1498.483027141971	460.798359374563	957.773987895655	946.636424464179	607.203453274119	925.309169184728	964.830640009880	334.395536497612	975.903146149208	737.584088253478	576.356900453513	883.416585165172	634.930844321904	635.811930289745	952.006732366540	577.542116449639	554.693013982818	943.664999246975	493.570350683467	558.146994344498	1017.086160275455	794.099246257233	362.447015764586	980.886811187228	665.404919699174	281.361706534802	1089.907070107670	611.257722635692	338.906322506639	1114.649147269511	529.726344942860	329.049088805692	1071.415352516296	453.106890838047	323.512045884067	954.766669824553	361.331043368019	280.636466968115	996.907741439135	236.502050907421	332.888085254878	917.384193912353	406.352126676296	561.158449881455	846.272942820222	298.355286972062	614.421314447123	895.336751887729	207.891064012506	548.834419730103	767.940323446524	40.991092470234	503.871729252990	937.665835364026	97.166997028505	548.448072836336	848.087964706536	35.913225847903	582.494561756034	1056.176513230496	46.069990144770	579.748956880694	848.994070209600	107.073815020086	380.564938464471	913.310037945283	83.234669764583	296.684256109332	1009.296163631789	128.347698606074	310.890913175453	1119.401390255302	50.909562431909	278.445446376254	826.744068072069	1076.044741616358	214.935654807355	885.102607758960	822.130426788748	209.448030676679	994.970373062586	1101.470993127889	760.144499692825	1235.409453750731	1039.197803186261	698.231489026697	
55	45.125000000000	724.263783199021	1009.763439462669	506.699107636220	873.343336732162	1435.925031408203	310.093394653716	995.178094652732	1369.007251502727	458.492983351540	932.744712704010	1441.962064971778	640.209716001533	875.227305272511	1498.213702917533	461.595256974371	957.004921899410	946.217257738680	607.443127998659	924.041399011906	964.323188159883	334.607018355821	972.521997303779	736.730425067391	576.838145365082	878.639501370991	634.970522742870	636.537606342599	946.309726291724	576.832363024769	555.549337398249	937.135630336214	493.170534935449	559.148526247312	1014.546358160001	792.986116228173	362.590395147542	978.146013230664	664.334289276220	281.422279914102	1086.298167337846	609.899123536406	339.862975180248	1112.058016190377	530.720960075009	329.934782359129	1073.215386784832	454.126683938984	323.686418798500	963.684179360321	354.762286520132	279.830925965780	1014.517502207926	232.778040138137	331.745651092583	910.377187021943	406.269544379881	561.880393228576	838.866560963528	298.398202213174	614.961003519122	887.888605261982	207.856505352069	549.253808638258	760.384985744271	40.993655898117	503.900596014688	930.095098423620	97.088243248700	548.474703757584	840.522799916191	35.895139629256	582.528528111880	1048.593776240114	46.013403545311	579.806397814561	876.451371452881	92.457369009623	378.603612569064	942.439148101122	74.114061246230	294.605197776750	1034.877479781488	125.894308600379	309.216161686388	1150.356655705521	56.914626617848	276.392786473973	819.607414912518	1077.168332885038	215.430828025732	868.172043340631	821.426081920756	210.499779217008	1006.106530954834	1103.454163512227	759.477030532809	1248.903607671525	1057.318104936762	694.605081554816	
56	45.137500000000	723.519658973187	1009.798245432677	507.356377001600	872.557719512288	1435.806336638243	310.714734791233	994.942361566092	1368.355967795061	458.462780626107	933.508116802510	1441.291525115348	640.489655445918	875.198216816469	1497.827001306877	462.276725129592	956.318546834927	945.707891247066	607.566787899336	922.878022694449	963.604470208355	334.685326855496	969.440176280487	735.846308515017	577.351726118748	874.122722713695	634.956417333141	637.166356437410	940.923887816983	576.110066011514	556.336797393313	930.930136785226	492.722794436574	560.025836595185	1011.763361659196	791.239701104088	362.567429813983	974.792252560087	662.750170833718	281.361265472168	1082.059833399527	607.846774827335	340.805896994160	1108.767261659111	531.176857166575	330.962164063593	1074.318719311104	454.968743697647	323.994544001675	972.466829966365	348.534365322548	278.947646181372	1031.578009375099	230.007377825833	330.768078568850	903.635032698228	406.140976904379	562.514500674622	831.689053354068	298.446960622008	615.454878456223	880.560167965259	207.787319854319	549.614886914868	752.842100886637	41.004587183091	503.934325975692	922.531303801026	96.999019120646	548.476894513750	832.965790658392	35.884286492779	582.563548054723	1041.024839277552	45.936539449357	579.862112050561	903.858797980626	79.707917281987	376.561346171308	971.381377184239	66.685373803783	292.690167318968	1059.851000043814	124.761205609340	307.872045613175	1180.086739508735	64.312370577548	275.185215457192	812.523719254218	1078.379204812040	215.760351044402	851.967134125482	821.294233339926	211.624578113227	1017.052878646873	1105.578479690794	758.534406876166	1261.124299728138	1074.964752324554	691.008466444259	
